{
    "asset" : {
        "generator" : "Khronos glTF Blender I/O v1.1.46",
        "version" : "2.0"
    },
    "scene" : 0,
    "scenes" : [
        {
            "name" : "Scene",
            "nodes" : [
                0
            ]
        }
    ],
    "nodes" : [
        {
            "mesh" : 0,
            "name" : "Text.002",
            "rotation" : [
                0,
                0,
                -1,
                -8.146033536604591e-08
            ],
            "scale" : [
                0.44019177556037903,
                0.44019177556037903,
                0.44019177556037903
            ]
        }
    ],
    "materials" : [
        {
            "doubleSided" : true,
            "emissiveFactor" : [
                0,
                0,
                0
            ],
            "name" : "Material.004",
            "pbrMetallicRoughness" : {
                "baseColorFactor" : [
                    0,
                    0,
                    0,
                    1
                ],
                "metallicFactor" : 0,
                "roughnessFactor" : 0.5
            }
        }
    ],
    "meshes" : [
        {
            "name" : "Text.005",
            "primitives" : [
                {
                    "attributes" : {
                        "POSITION" : 0,
                        "NORMAL" : 1,
                        "TEXCOORD_0" : 2
                    },
                    "indices" : 3,
                    "material" : 0
                }
            ]
        }
    ],
    "accessors" : [
        {
            "bufferView" : 0,
            "componentType" : 5126,
            "count" : 16315,
            "max" : [
                16.61983299255371,
                1.3818387985229492,
                1.2449707753603434e-07
            ],
            "min" : [
                4.101832866668701,
                -3.539161205291748,
                1.244969496383419e-07
            ],
            "type" : "VEC3"
        },
        {
            "bufferView" : 1,
            "componentType" : 5126,
            "count" : 16315,
            "type" : "VEC3"
        },
        {
            "bufferView" : 2,
            "componentType" : 5126,
            "count" : 16315,
            "type" : "VEC2"
        },
        {
            "bufferView" : 3,
            "componentType" : 5123,
            "count" : 18987,
            "type" : "SCALAR"
        }
    ],
    "bufferViews" : [
        {
            "buffer" : 0,
            "byteLength" : 195780,
            "byteOffset" : 0
        },
        {
            "buffer" : 0,
            "byteLength" : 195780,
            "byteOffset" : 195780
        },
        {
            "buffer" : 0,
            "byteLength" : 130520,
            "byteOffset" : 391560
        },
        {
            "buffer" : 0,
            "byteLength" : 37974,
            "byteOffset" : 522080
        }
    ],
    "buffers" : [
        {
            "byteLength" : 560056,
            "uri" : "data:application/octet-stream;base64,"
        }
    ]
}
