{
    "asset" : {
        "generator" : "Khronos glTF Blender I/O v1.1.46",
        "version" : "2.0"
    },
    "scene" : 0,
    "scenes" : [
        {
            "name" : "Scene",
            "nodes" : [
                0
            ]
        }
    ],
    "nodes" : [
        {
            "mesh" : 0,
            "name" : "Text.002",
            "rotation" : [
                0,
                0,
                -1,
                -8.146033536604591e-08
            ],
            "scale" : [
                0.44019177556037903,
                0.44019177556037903,
                0.44019177556037903
            ]
        }
    ],
    "materials" : [
        {
            "doubleSided" : true,
            "emissiveFactor" : [
                0,
                0,
                0
            ],
            "name" : "Material.003",
            "pbrMetallicRoughness" : {
                "baseColorFactor" : [
                    0.7037490010261536,
                    0.0004780000017490238,
                    0.03330700099468231,
                    1
                ],
                "metallicFactor" : 0,
                "roughnessFactor" : 0.5
            }
        },
        {
            "alphaMode" : "BLEND",
            "doubleSided" : true,
            "emissiveFactor" : [
                0,
                0,
                0
            ],
            "name" : "Untitled-1-01",
            "pbrMetallicRoughness" : {
                "baseColorTexture" : {
                    "index" : 0,
                    "texCoord" : 0
                },
                "metallicFactor" : 0,
                "roughnessFactor" : 0.5
            }
        }
    ],
    "meshes" : [
        {
            "name" : "Text.008",
            "primitives" : [
                {
                    "attributes" : {
                        "POSITION" : 0,
                        "NORMAL" : 1,
                        "TEXCOORD_0" : 2
                    },
                    "indices" : 3,
                    "material" : 0
                },
                {
                    "attributes" : {
                        "POSITION" : 4,
                        "NORMAL" : 5,
                        "TEXCOORD_0" : 6
                    },
                    "indices" : 7,
                    "material" : 1
                }
            ]
        }
    ],
    "textures" : [
        {
            "source" : 0
        }
    ],
    "images" : [
        {
            "bufferView" : 8,
            "mimeType" : "image/png",
            "name" : "Image_0"
        }
    ],
    "accessors" : [
        {
            "bufferView" : 0,
            "componentType" : 5126,
            "count" : 29482,
            "max" : [
                -3.727466583251953,
                -6.016605854034424,
                -0.004771823529154062
            ],
            "min" : [
                -4.860868453979492,
                -7.43517541885376,
                -1.0497711896896362
            ],
            "type" : "VEC3"
        },
        {
            "bufferView" : 1,
            "componentType" : 5126,
            "count" : 29482,
            "type" : "VEC3"
        },
        {
            "bufferView" : 2,
            "componentType" : 5126,
            "count" : 29482,
            "type" : "VEC2"
        },
        {
            "bufferView" : 3,
            "componentType" : 5123,
            "count" : 149571,
            "type" : "SCALAR"
        },
        {
            "bufferView" : 4,
            "componentType" : 5126,
            "count" : 6,
            "max" : [
                7.406977653503418,
                -4.667130470275879,
                0.5272731184959412
            ],
            "min" : [
                -7.406976699829102,
                -9.111316680908203,
                0.5272710919380188
            ],
            "type" : "VEC3"
        },
        {
            "bufferView" : 5,
            "componentType" : 5126,
            "count" : 6,
            "type" : "VEC3"
        },
        {
            "bufferView" : 6,
            "componentType" : 5126,
            "count" : 6,
            "type" : "VEC2"
        },
        {
            "bufferView" : 7,
            "componentType" : 5123,
            "count" : 6,
            "type" : "SCALAR"
        }
    ],
    "bufferViews" : [
        {
            "buffer" : 0,
            "byteLength" : 353784,
            "byteOffset" : 0
        },
        {
            "buffer" : 0,
            "byteLength" : 353784,
            "byteOffset" : 353784
        },
        {
            "buffer" : 0,
            "byteLength" : 235856,
            "byteOffset" : 707568
        },
        {
            "buffer" : 0,
            "byteLength" : 299142,
            "byteOffset" : 943424
        },
        {
            "buffer" : 0,
            "byteLength" : 72,
            "byteOffset" : 1242568
        },
        {
            "buffer" : 0,
            "byteLength" : 72,
            "byteOffset" : 1242640
        },
        {
            "buffer" : 0,
            "byteLength" : 48,
            "byteOffset" : 1242712
        },
        {
            "buffer" : 0,
            "byteLength" : 12,
            "byteOffset" : 1242760
        },
        {
            "buffer" : 0,
            "byteLength" : 54740,
            "byteOffset" : 1242772
        }
    ],
    "buffers" : [
        {
            "byteLength" : 1297512,
            "uri" : "data:application/octet-stream;base64,"
        }
    ]
}
