{
    "asset" : {
        "generator" : "Khronos glTF Blender I/O v1.1.46",
        "version" : "2.0"
    },
    "scene" : 0,
    "scenes" : [
        {
            "name" : "Scene",
            "nodes" : [
                0
            ]
        }
    ],
    "nodes" : [
        {
            "mesh" : 0,
            "name" : "Text.006",
            "rotation" : [
                0.7071066498756409,
                0,
                -0.70710688829422,
                -1.317967104341733e-07
            ],
            "scale" : [
                0.8823738694190979,
                0.8823738694190979,
                0.8823737502098083
            ]
        }
    ],
    "materials" : [
        {
            "doubleSided" : true,
            "emissiveFactor" : [
                0,
                0,
                0
            ],
            "name" : "Material.004",
            "pbrMetallicRoughness" : {
                "baseColorFactor" : [
                    0,
                    0,
                    0,
                    1
                ],
                "metallicFactor" : 0,
                "roughnessFactor" : 0.5
            }
        },
        {
            "alphaMode" : "BLEND",
            "doubleSided" : true,
            "emissiveFactor" : [
                0,
                0,
                0
            ],
            "name" : "Untitled-1-01",
            "pbrMetallicRoughness" : {
                "baseColorTexture" : {
                    "index" : 0,
                    "texCoord" : 0
                },
                "metallicFactor" : 0,
                "roughnessFactor" : 0.5
            }
        },
        {
            "doubleSided" : true,
            "emissiveFactor" : [
                0,
                0,
                0
            ],
            "name" : "Material.001",
            "pbrMetallicRoughness" : {
                "baseColorFactor" : [
                    0,
                    0,
                    0,
                    1
                ],
                "metallicFactor" : 0,
                "roughnessFactor" : 0.5
            }
        }
    ],
    "meshes" : [
        {
            "name" : "Text.010",
            "primitives" : [
                {
                    "attributes" : {
                        "POSITION" : 0,
                        "NORMAL" : 1,
                        "TEXCOORD_0" : 2
                    },
                    "indices" : 3,
                    "material" : 0
                },
                {
                    "attributes" : {
                        "POSITION" : 4,
                        "NORMAL" : 5,
                        "TEXCOORD_0" : 6
                    },
                    "indices" : 7,
                    "material" : 1
                },
                {
                    "attributes" : {
                        "POSITION" : 8,
                        "NORMAL" : 9,
                        "TEXCOORD_0" : 10
                    },
                    "indices" : 11,
                    "material" : 2
                }
            ]
        }
    ],
    "textures" : [
        {
            "source" : 0
        }
    ],
    "images" : [
        {
            "bufferView" : 8,
            "mimeType" : "image/png",
            "name" : "Image_0"
        }
    ],
    "accessors" : [
        {
            "bufferView" : 0,
            "componentType" : 5126,
            "count" : 22233,
            "max" : [
                -4.011584758758545,
                2.077188730239868,
                -0.04094782844185829
            ],
            "min" : [
                -18.04958724975586,
                -2.8438117504119873,
                -0.04094782844185829
            ],
            "type" : "VEC3"
        },
        {
            "bufferView" : 1,
            "componentType" : 5126,
            "count" : 22233,
            "type" : "VEC3"
        },
        {
            "bufferView" : 2,
            "componentType" : 5126,
            "count" : 22233,
            "type" : "VEC2"
        },
        {
            "bufferView" : 3,
            "componentType" : 5123,
            "count" : 26100,
            "type" : "SCALAR"
        },
        {
            "bufferView" : 4,
            "componentType" : 5126,
            "count" : 6,
            "max" : [
                7.870914459228516,
                -3.365553379058838,
                0.3021296262741089
            ],
            "min" : [
                -7.975560188293457,
                -8.119501113891602,
                0.30212825536727905
            ],
            "type" : "VEC3"
        },
        {
            "bufferView" : 5,
            "componentType" : 5126,
            "count" : 6,
            "type" : "VEC3"
        },
        {
            "bufferView" : 6,
            "componentType" : 5126,
            "count" : 6,
            "type" : "VEC2"
        },
        {
            "bufferView" : 7,
            "componentType" : 5123,
            "count" : 6,
            "type" : "SCALAR"
        },
        {
            "bufferView" : 9,
            "componentType" : 5126,
            "count" : 19664,
            "max" : [
                15.803422927856445,
                1.8561902046203613,
                -0.04094690456986427
            ],
            "min" : [
                4.574419975280762,
                -2.8442182540893555,
                -0.04094690456986427
            ],
            "type" : "VEC3"
        },
        {
            "bufferView" : 10,
            "componentType" : 5126,
            "count" : 19664,
            "type" : "VEC3"
        },
        {
            "bufferView" : 11,
            "componentType" : 5126,
            "count" : 19664,
            "type" : "VEC2"
        },
        {
            "bufferView" : 12,
            "componentType" : 5123,
            "count" : 22488,
            "type" : "SCALAR"
        }
    ],
    "bufferViews" : [
        {
            "buffer" : 0,
            "byteLength" : 266796,
            "byteOffset" : 0
        },
        {
            "buffer" : 0,
            "byteLength" : 266796,
            "byteOffset" : 266796
        },
        {
            "buffer" : 0,
            "byteLength" : 177864,
            "byteOffset" : 533592
        },
        {
            "buffer" : 0,
            "byteLength" : 52200,
            "byteOffset" : 711456
        },
        {
            "buffer" : 0,
            "byteLength" : 72,
            "byteOffset" : 763656
        },
        {
            "buffer" : 0,
            "byteLength" : 72,
            "byteOffset" : 763728
        },
        {
            "buffer" : 0,
            "byteLength" : 48,
            "byteOffset" : 763800
        },
        {
            "buffer" : 0,
            "byteLength" : 12,
            "byteOffset" : 763848
        },
        {
            "buffer" : 0,
            "byteLength" : 54740,
            "byteOffset" : 763860
        },
        {
            "buffer" : 0,
            "byteLength" : 235968,
            "byteOffset" : 818600
        },
        {
            "buffer" : 0,
            "byteLength" : 235968,
            "byteOffset" : 1054568
        },
        {
            "buffer" : 0,
            "byteLength" : 157312,
            "byteOffset" : 1290536
        },
        {
            "buffer" : 0,
            "byteLength" : 44976,
            "byteOffset" : 1447848
        }
    ],
    "buffers" : [
        {
            "byteLength" : 1492824,
            "uri" : "data:application/octet-stream;base64,"
        }
    ]
}
