{
    "asset" : {
        "generator" : "Khronos glTF Blender I/O v1.1.46",
        "version" : "2.0"
    },
    "scene" : 0,
    "scenes" : [
        {
            "name" : "Scene",
            "nodes" : [
                0
            ]
        }
    ],
    "nodes" : [
        {
            "mesh" : 0,
            "name" : "Text.003",
            "rotation" : [
                0.7071067690849304,
                0,
                0,
                0.7071067690849304
            ],
            "scale" : [
                0.811087965965271,
                0.811087965965271,
                0.811087965965271
            ]
        }
    ],
    "materials" : [
        {
            "doubleSided" : true,
            "emissiveFactor" : [
                0,
                0,
                0
            ],
            "name" : "Material.017",
            "pbrMetallicRoughness" : {
                "baseColorFactor" : [
                    1,
                    1,
                    1,
                    1
                ],
                "metallicFactor" : 0,
                "roughnessFactor" : 0.6269841194152832
            }
        },
        {
            "doubleSided" : true,
            "emissiveFactor" : [
                0,
                0,
                0
            ],
            "name" : "Material.014",
            "pbrMetallicRoughness" : {
                "baseColorFactor" : [
                    0.800000011920929,
                    0.06278800219297409,
                    0.06278800219297409,
                    1
                ],
                "metallicFactor" : 0,
                "roughnessFactor" : 1
            }
        },
        {
            "doubleSided" : true,
            "emissiveFactor" : [
                0,
                0,
                0
            ],
            "name" : "Material.015",
            "pbrMetallicRoughness" : {
                "baseColorFactor" : [
                    1,
                    1,
                    1,
                    1
                ],
                "metallicFactor" : 0,
                "roughnessFactor" : 0.6269841194152832
            }
        },
        {
            "doubleSided" : true,
            "emissiveFactor" : [
                0,
                0,
                0
            ],
            "name" : "Material.013",
            "pbrMetallicRoughness" : {
                "baseColorFactor" : [
                    0.800000011920929,
                    0.06278800219297409,
                    0.06278800219297409,
                    1
                ],
                "metallicFactor" : 0,
                "roughnessFactor" : 1
            }
        }
    ],
    "meshes" : [
        {
            "name" : "Text.005",
            "primitives" : [
                {
                    "attributes" : {
                        "POSITION" : 0,
                        "NORMAL" : 1,
                        "TEXCOORD_0" : 2
                    },
                    "indices" : 3,
                    "material" : 0
                },
                {
                    "attributes" : {
                        "POSITION" : 4,
                        "NORMAL" : 5,
                        "TEXCOORD_0" : 6
                    },
                    "indices" : 7,
                    "material" : 1
                },
                {
                    "attributes" : {
                        "POSITION" : 8,
                        "NORMAL" : 9,
                        "TEXCOORD_0" : 10
                    },
                    "indices" : 11,
                    "material" : 2
                },
                {
                    "attributes" : {
                        "POSITION" : 12,
                        "NORMAL" : 13,
                        "TEXCOORD_0" : 14
                    },
                    "indices" : 15,
                    "material" : 3
                }
            ]
        }
    ],
    "accessors" : [
        {
            "bufferView" : 0,
            "componentType" : 5126,
            "count" : 17115,
            "max" : [
                1.3142733573913574,
                0.1199994683265686,
                -11.918774604797363
            ],
            "min" : [
                -1.404739260673523,
                -0.12000054121017456,
                -12.665118217468262
            ],
            "type" : "VEC3"
        },
        {
            "bufferView" : 1,
            "componentType" : 5126,
            "count" : 17115,
            "type" : "VEC3"
        },
        {
            "bufferView" : 2,
            "componentType" : 5126,
            "count" : 17115,
            "type" : "VEC2"
        },
        {
            "bufferView" : 3,
            "componentType" : 5123,
            "count" : 91296,
            "type" : "SCALAR"
        },
        {
            "bufferView" : 4,
            "componentType" : 5126,
            "count" : 448,
            "max" : [
                1.9737142324447632,
                0.2704828977584839,
                -11.839306831359863
            ],
            "min" : [
                -2.0434134006500244,
                -0.27048397064208984,
                -12.380276679992676
            ],
            "type" : "VEC3"
        },
        {
            "bufferView" : 5,
            "componentType" : 5126,
            "count" : 448,
            "type" : "VEC3"
        },
        {
            "bufferView" : 6,
            "componentType" : 5126,
            "count" : 448,
            "type" : "VEC2"
        },
        {
            "bufferView" : 7,
            "componentType" : 5123,
            "count" : 744,
            "type" : "SCALAR"
        },
        {
            "bufferView" : 8,
            "componentType" : 5126,
            "count" : 23745,
            "max" : [
                3.8996729850769043,
                0.14794950187206268,
                1.6736774444580078
            ],
            "min" : [
                2.9872524738311768,
                -0.14794951677322388,
                -1.6366901397705078
            ],
            "type" : "VEC3"
        },
        {
            "bufferView" : 9,
            "componentType" : 5126,
            "count" : 23745,
            "type" : "VEC3"
        },
        {
            "bufferView" : 10,
            "componentType" : 5126,
            "count" : 23745,
            "type" : "VEC2"
        },
        {
            "bufferView" : 11,
            "componentType" : 5123,
            "count" : 122448,
            "type" : "SCALAR"
        },
        {
            "bufferView" : 12,
            "componentType" : 5126,
            "count" : 448,
            "max" : [
                3.5287232398986816,
                0.2704837918281555,
                9.198627471923828
            ],
            "min" : [
                2.9877541065216064,
                -0.27048391103744507,
                -11.075590133666992
            ],
            "type" : "VEC3"
        },
        {
            "bufferView" : 13,
            "componentType" : 5126,
            "count" : 448,
            "type" : "VEC3"
        },
        {
            "bufferView" : 14,
            "componentType" : 5126,
            "count" : 448,
            "type" : "VEC2"
        },
        {
            "bufferView" : 15,
            "componentType" : 5123,
            "count" : 744,
            "type" : "SCALAR"
        }
    ],
    "bufferViews" : [
        {
            "buffer" : 0,
            "byteLength" : 205380,
            "byteOffset" : 0
        },
        {
            "buffer" : 0,
            "byteLength" : 205380,
            "byteOffset" : 205380
        },
        {
            "buffer" : 0,
            "byteLength" : 136920,
            "byteOffset" : 410760
        },
        {
            "buffer" : 0,
            "byteLength" : 182592,
            "byteOffset" : 547680
        },
        {
            "buffer" : 0,
            "byteLength" : 5376,
            "byteOffset" : 730272
        },
        {
            "buffer" : 0,
            "byteLength" : 5376,
            "byteOffset" : 735648
        },
        {
            "buffer" : 0,
            "byteLength" : 3584,
            "byteOffset" : 741024
        },
        {
            "buffer" : 0,
            "byteLength" : 1488,
            "byteOffset" : 744608
        },
        {
            "buffer" : 0,
            "byteLength" : 284940,
            "byteOffset" : 746096
        },
        {
            "buffer" : 0,
            "byteLength" : 284940,
            "byteOffset" : 1031036
        },
        {
            "buffer" : 0,
            "byteLength" : 189960,
            "byteOffset" : 1315976
        },
        {
            "buffer" : 0,
            "byteLength" : 244896,
            "byteOffset" : 1505936
        },
        {
            "buffer" : 0,
            "byteLength" : 5376,
            "byteOffset" : 1750832
        },
        {
            "buffer" : 0,
            "byteLength" : 5376,
            "byteOffset" : 1756208
        },
        {
            "buffer" : 0,
            "byteLength" : 3584,
            "byteOffset" : 1761584
        },
        {
            "buffer" : 0,
            "byteLength" : 1488,
            "byteOffset" : 1765168
        }
    ],
    "buffers" : [
        {
            "byteLength" : 1766656,
            "uri" : "data:application/octet-stream;base64,"
        }
    ]
}
