{
    "asset" : {
        "generator" : "Khronos glTF Blender I/O v1.1.46",
        "version" : "2.0"
    },
    "scene" : 0,
    "scenes" : [
        {
            "name" : "Scene",
            "nodes" : [
                0
            ]
        }
    ],
    "nodes" : [
        {
            "mesh" : 0,
            "name" : "Text.007",
            "rotation" : [
                0.5,
                -0.5,
                -0.4999999701976776,
                0.5
            ],
            "translation" : [
                15.869556427001953,
                0,
                0
            ]
        }
    ],
    "materials" : [
        {
            "doubleSided" : true,
            "emissiveFactor" : [
                0,
                0,
                0
            ],
            "name" : "Material.025",
            "pbrMetallicRoughness" : {
                "baseColorFactor" : [
                    1,
                    1,
                    1,
                    1
                ],
                "metallicFactor" : 0,
                "roughnessFactor" : 0.6269841194152832
            }
        },
        {
            "doubleSided" : true,
            "emissiveFactor" : [
                0,
                0,
                0
            ],
            "name" : "Material.023",
            "pbrMetallicRoughness" : {
                "baseColorFactor" : [
                    0.800000011920929,
                    0.06278800219297409,
                    0.06278800219297409,
                    1
                ],
                "metallicFactor" : 0,
                "roughnessFactor" : 1
            }
        },
        {
            "doubleSided" : true,
            "emissiveFactor" : [
                0,
                0,
                0
            ],
            "name" : "Material.024",
            "pbrMetallicRoughness" : {
                "baseColorFactor" : [
                    1,
                    1,
                    1,
                    1
                ],
                "metallicFactor" : 0,
                "roughnessFactor" : 0.6269841194152832
            }
        },
        {
            "doubleSided" : true,
            "emissiveFactor" : [
                0,
                0,
                0
            ],
            "name" : "Material.027",
            "pbrMetallicRoughness" : {
                "baseColorFactor" : [
                    0.800000011920929,
                    0.06278800219297409,
                    0.06278800219297409,
                    1
                ],
                "metallicFactor" : 0,
                "roughnessFactor" : 1
            }
        }
    ],
    "meshes" : [
        {
            "name" : "Text.007",
            "primitives" : [
                {
                    "attributes" : {
                        "POSITION" : 0,
                        "NORMAL" : 1,
                        "TEXCOORD_0" : 2
                    },
                    "indices" : 3,
                    "material" : 0
                },
                {
                    "attributes" : {
                        "POSITION" : 4,
                        "NORMAL" : 5,
                        "TEXCOORD_0" : 6
                    },
                    "indices" : 7,
                    "material" : 1
                },
                {
                    "attributes" : {
                        "POSITION" : 8,
                        "NORMAL" : 9,
                        "TEXCOORD_0" : 10
                    },
                    "indices" : 11,
                    "material" : 2
                },
                {
                    "attributes" : {
                        "POSITION" : 12,
                        "NORMAL" : 13,
                        "TEXCOORD_0" : 14
                    },
                    "indices" : 15,
                    "material" : 3
                }
            ]
        }
    ],
    "accessors" : [
        {
            "bufferView" : 0,
            "componentType" : 5126,
            "count" : 23142,
            "max" : [
                1.3574999570846558,
                0.12000000476837158,
                0.37006694078445435
            ],
            "min" : [
                -1.3615126609802246,
                -0.12000000476837158,
                -0.37741902470588684
            ],
            "type" : "VEC3"
        },
        {
            "bufferView" : 1,
            "componentType" : 5126,
            "count" : 23142,
            "type" : "VEC3"
        },
        {
            "bufferView" : 2,
            "componentType" : 5126,
            "count" : 23142,
            "type" : "VEC2"
        },
        {
            "bufferView" : 3,
            "componentType" : 5123,
            "count" : 123528,
            "type" : "SCALAR"
        },
        {
            "bufferView" : 4,
            "componentType" : 5126,
            "count" : 448,
            "max" : [
                2.3558719158172607,
                0.21938586235046387,
                0.3696258068084717
            ],
            "min" : [
                -2.4860172271728516,
                -0.21938586235046387,
                -0.06914681196212769
            ],
            "type" : "VEC3"
        },
        {
            "bufferView" : 5,
            "componentType" : 5126,
            "count" : 448,
            "type" : "VEC3"
        },
        {
            "bufferView" : 6,
            "componentType" : 5126,
            "count" : 448,
            "type" : "VEC2"
        },
        {
            "bufferView" : 7,
            "componentType" : 5123,
            "count" : 744,
            "type" : "SCALAR"
        },
        {
            "bufferView" : 8,
            "componentType" : 5126,
            "count" : 27293,
            "max" : [
                -3.719954252243042,
                0.12000076472759247,
                17.19705581665039
            ],
            "min" : [
                -4.460007667541504,
                -0.11999938637018204,
                14.512056350708008
            ],
            "type" : "VEC3"
        },
        {
            "bufferView" : 9,
            "componentType" : 5126,
            "count" : 27293,
            "type" : "VEC3"
        },
        {
            "bufferView" : 10,
            "componentType" : 5126,
            "count" : 27293,
            "type" : "VEC2"
        },
        {
            "bufferView" : 11,
            "componentType" : 5123,
            "count" : 139068,
            "type" : "SCALAR"
        },
        {
            "bufferView" : 12,
            "componentType" : 5126,
            "count" : 448,
            "max" : [
                -3.694180488586426,
                0.21938717365264893,
                30.113536834716797
            ],
            "min" : [
                -4.1329545974731445,
                -0.2193857580423355,
                1.4948301315307617
            ],
            "type" : "VEC3"
        },
        {
            "bufferView" : 13,
            "componentType" : 5126,
            "count" : 448,
            "type" : "VEC3"
        },
        {
            "bufferView" : 14,
            "componentType" : 5126,
            "count" : 448,
            "type" : "VEC2"
        },
        {
            "bufferView" : 15,
            "componentType" : 5123,
            "count" : 744,
            "type" : "SCALAR"
        }
    ],
    "bufferViews" : [
        {
            "buffer" : 0,
            "byteLength" : 277704,
            "byteOffset" : 0
        },
        {
            "buffer" : 0,
            "byteLength" : 277704,
            "byteOffset" : 277704
        },
        {
            "buffer" : 0,
            "byteLength" : 185136,
            "byteOffset" : 555408
        },
        {
            "buffer" : 0,
            "byteLength" : 247056,
            "byteOffset" : 740544
        },
        {
            "buffer" : 0,
            "byteLength" : 5376,
            "byteOffset" : 987600
        },
        {
            "buffer" : 0,
            "byteLength" : 5376,
            "byteOffset" : 992976
        },
        {
            "buffer" : 0,
            "byteLength" : 3584,
            "byteOffset" : 998352
        },
        {
            "buffer" : 0,
            "byteLength" : 1488,
            "byteOffset" : 1001936
        },
        {
            "buffer" : 0,
            "byteLength" : 327516,
            "byteOffset" : 1003424
        },
        {
            "buffer" : 0,
            "byteLength" : 327516,
            "byteOffset" : 1330940
        },
        {
            "buffer" : 0,
            "byteLength" : 218344,
            "byteOffset" : 1658456
        },
        {
            "buffer" : 0,
            "byteLength" : 278136,
            "byteOffset" : 1876800
        },
        {
            "buffer" : 0,
            "byteLength" : 5376,
            "byteOffset" : 2154936
        },
        {
            "buffer" : 0,
            "byteLength" : 5376,
            "byteOffset" : 2160312
        },
        {
            "buffer" : 0,
            "byteLength" : 3584,
            "byteOffset" : 2165688
        },
        {
            "buffer" : 0,
            "byteLength" : 1488,
            "byteOffset" : 2169272
        }
    ],
    "buffers" : [
        {
            "byteLength" : 2170760,
            "uri" : "data:application/octet-stream;base64,"
        }
    ]
}
