{
    "asset" : {
        "generator" : "Khronos glTF Blender I/O v1.1.46",
        "version" : "2.0"
    },
    "scene" : 0,
    "scenes" : [
        {
            "name" : "Scene",
            "nodes" : [
                0
            ]
        }
    ],
    "nodes" : [
        {
            "mesh" : 0,
            "name" : "Text.001",
            "rotation" : [
                0.5,
                -0.5,
                -0.4999999701976776,
                0.5
            ]
        }
    ],
    "materials" : [
        {
            "doubleSided" : true,
            "emissiveFactor" : [
                0,
                0,
                0
            ],
            "name" : "Material.015",
            "pbrMetallicRoughness" : {
                "baseColorFactor" : [
                    1,
                    1,
                    1,
                    1
                ],
                "metallicFactor" : 0,
                "roughnessFactor" : 0.6269841194152832
            }
        },
        {
            "doubleSided" : true,
            "emissiveFactor" : [
                0,
                0,
                0
            ],
            "name" : "Material.013",
            "pbrMetallicRoughness" : {
                "baseColorFactor" : [
                    0.800000011920929,
                    0.06278800219297409,
                    0.06278800219297409,
                    1
                ],
                "metallicFactor" : 0,
                "roughnessFactor" : 1
            }
        },
        {
            "doubleSided" : true,
            "emissiveFactor" : [
                0,
                0,
                0
            ],
            "name" : "Material.017",
            "pbrMetallicRoughness" : {
                "baseColorFactor" : [
                    1,
                    1,
                    1,
                    1
                ],
                "metallicFactor" : 0,
                "roughnessFactor" : 0.6269841194152832
            }
        },
        {
            "doubleSided" : true,
            "emissiveFactor" : [
                0,
                0,
                0
            ],
            "name" : "Material.014",
            "pbrMetallicRoughness" : {
                "baseColorFactor" : [
                    0.800000011920929,
                    0.06278800219297409,
                    0.06278800219297409,
                    1
                ],
                "metallicFactor" : 0,
                "roughnessFactor" : 1
            }
        }
    ],
    "meshes" : [
        {
            "name" : "Text.006",
            "primitives" : [
                {
                    "attributes" : {
                        "POSITION" : 0,
                        "NORMAL" : 1,
                        "TEXCOORD_0" : 2
                    },
                    "indices" : 3,
                    "material" : 0
                },
                {
                    "attributes" : {
                        "POSITION" : 4,
                        "NORMAL" : 5,
                        "TEXCOORD_0" : 6
                    },
                    "indices" : 7,
                    "material" : 1
                },
                {
                    "attributes" : {
                        "POSITION" : 8,
                        "NORMAL" : 9,
                        "TEXCOORD_0" : 10
                    },
                    "indices" : 11,
                    "material" : 2
                },
                {
                    "attributes" : {
                        "POSITION" : 12,
                        "NORMAL" : 13,
                        "TEXCOORD_0" : 14
                    },
                    "indices" : 15,
                    "material" : 3
                }
            ]
        }
    ],
    "accessors" : [
        {
            "bufferView" : 0,
            "componentType" : 5126,
            "count" : 22886,
            "max" : [
                1.3575001955032349,
                0.11999988555908203,
                -2.422924757003784
            ],
            "min" : [
                -1.3274997472763062,
                -0.12000012397766113,
                -3.162978172302246
            ],
            "type" : "VEC3"
        },
        {
            "bufferView" : 1,
            "componentType" : 5126,
            "count" : 22886,
            "type" : "VEC3"
        },
        {
            "bufferView" : 2,
            "componentType" : 5126,
            "count" : 22886,
            "type" : "VEC2"
        },
        {
            "bufferView" : 3,
            "componentType" : 5123,
            "count" : 122448,
            "type" : "SCALAR"
        },
        {
            "bufferView" : 4,
            "componentType" : 5126,
            "count" : 448,
            "max" : [
                7.616132736206055,
                0.21938574314117432,
                -2.4233317375183105
            ],
            "min" : [
                -9.146757125854492,
                -0.21938598155975342,
                -2.862104892730713
            ],
            "type" : "VEC3"
        },
        {
            "bufferView" : 5,
            "componentType" : 5126,
            "count" : 448,
            "type" : "VEC3"
        },
        {
            "bufferView" : 6,
            "componentType" : 5126,
            "count" : 448,
            "type" : "VEC2"
        },
        {
            "bufferView" : 7,
            "componentType" : 5123,
            "count" : 744,
            "type" : "SCALAR"
        },
        {
            "bufferView" : 8,
            "componentType" : 5126,
            "count" : 17828,
            "max" : [
                -9.997964859008789,
                0.09733062237501144,
                1.1393675804138184
            ],
            "min" : [
                -10.603315353393555,
                -0.09733061492443085,
                -1.0659908056259155
            ],
            "type" : "VEC3"
        },
        {
            "bufferView" : 9,
            "componentType" : 5126,
            "count" : 17828,
            "type" : "VEC3"
        },
        {
            "bufferView" : 10,
            "componentType" : 5126,
            "count" : 17828,
            "type" : "VEC2"
        },
        {
            "bufferView" : 11,
            "componentType" : 5123,
            "count" : 91296,
            "type" : "SCALAR"
        },
        {
            "bufferView" : 12,
            "componentType" : 5126,
            "count" : 448,
            "max" : [
                -9.933509826660156,
                0.21938590705394745,
                1.657388687133789
            ],
            "min" : [
                -10.372282028198242,
                -0.21938592195510864,
                -1.6008553504943848
            ],
            "type" : "VEC3"
        },
        {
            "bufferView" : 13,
            "componentType" : 5126,
            "count" : 448,
            "type" : "VEC3"
        },
        {
            "bufferView" : 14,
            "componentType" : 5126,
            "count" : 448,
            "type" : "VEC2"
        },
        {
            "bufferView" : 15,
            "componentType" : 5123,
            "count" : 744,
            "type" : "SCALAR"
        }
    ],
    "bufferViews" : [
        {
            "buffer" : 0,
            "byteLength" : 274632,
            "byteOffset" : 0
        },
        {
            "buffer" : 0,
            "byteLength" : 274632,
            "byteOffset" : 274632
        },
        {
            "buffer" : 0,
            "byteLength" : 183088,
            "byteOffset" : 549264
        },
        {
            "buffer" : 0,
            "byteLength" : 244896,
            "byteOffset" : 732352
        },
        {
            "buffer" : 0,
            "byteLength" : 5376,
            "byteOffset" : 977248
        },
        {
            "buffer" : 0,
            "byteLength" : 5376,
            "byteOffset" : 982624
        },
        {
            "buffer" : 0,
            "byteLength" : 3584,
            "byteOffset" : 988000
        },
        {
            "buffer" : 0,
            "byteLength" : 1488,
            "byteOffset" : 991584
        },
        {
            "buffer" : 0,
            "byteLength" : 213936,
            "byteOffset" : 993072
        },
        {
            "buffer" : 0,
            "byteLength" : 213936,
            "byteOffset" : 1207008
        },
        {
            "buffer" : 0,
            "byteLength" : 142624,
            "byteOffset" : 1420944
        },
        {
            "buffer" : 0,
            "byteLength" : 182592,
            "byteOffset" : 1563568
        },
        {
            "buffer" : 0,
            "byteLength" : 5376,
            "byteOffset" : 1746160
        },
        {
            "buffer" : 0,
            "byteLength" : 5376,
            "byteOffset" : 1751536
        },
        {
            "buffer" : 0,
            "byteLength" : 3584,
            "byteOffset" : 1756912
        },
        {
            "buffer" : 0,
            "byteLength" : 1488,
            "byteOffset" : 1760496
        }
    ],
    "buffers" : [
        {
            "byteLength" : 1761984,
            "uri" : "data:application/octet-stream;base64,"
        }
    ]
}
