{
    "asset" : {
        "generator" : "Khronos glTF Blender I/O v1.1.46",
        "version" : "2.0"
    },
    "scene" : 0,
    "scenes" : [
        {
            "name" : "Scene",
            "nodes" : [
                0
            ]
        }
    ],
    "nodes" : [
        {
            "mesh" : 0,
            "name" : "Text.001",
            "rotation" : [
                0.7071067690849304,
                0,
                0,
                0.7071067690849304
            ]
        }
    ],
    "materials" : [
        {
            "doubleSided" : true,
            "emissiveFactor" : [
                0,
                0,
                0
            ],
            "name" : "Material.011",
            "pbrMetallicRoughness" : {
                "baseColorFactor" : [
                    1,
                    1,
                    1,
                    1
                ],
                "metallicFactor" : 0,
                "roughnessFactor" : 0.6269841194152832
            }
        },
        {
            "doubleSided" : true,
            "emissiveFactor" : [
                0,
                0,
                0
            ],
            "name" : "Material.006",
            "pbrMetallicRoughness" : {
                "baseColorFactor" : [
                    0.800000011920929,
                    0.06278800219297409,
                    0.06278800219297409,
                    1
                ],
                "metallicFactor" : 0,
                "roughnessFactor" : 1
            }
        },
        {
            "doubleSided" : true,
            "emissiveFactor" : [
                0,
                0,
                0
            ],
            "name" : "Material.007",
            "pbrMetallicRoughness" : {
                "baseColorFactor" : [
                    0.800000011920929,
                    0.06278800219297409,
                    0.06278800219297409,
                    1
                ],
                "metallicFactor" : 0,
                "roughnessFactor" : 1
            }
        },
        {
            "doubleSided" : true,
            "emissiveFactor" : [
                0,
                0,
                0
            ],
            "name" : "Material.008",
            "pbrMetallicRoughness" : {
                "baseColorFactor" : [
                    1,
                    1,
                    1,
                    1
                ],
                "metallicFactor" : 0,
                "roughnessFactor" : 0.6269841194152832
            }
        }
    ],
    "meshes" : [
        {
            "name" : "Text.003",
            "primitives" : [
                {
                    "attributes" : {
                        "POSITION" : 0,
                        "NORMAL" : 1,
                        "TEXCOORD_0" : 2
                    },
                    "indices" : 3,
                    "material" : 0
                },
                {
                    "attributes" : {
                        "POSITION" : 4,
                        "NORMAL" : 5,
                        "TEXCOORD_0" : 6
                    },
                    "indices" : 7,
                    "material" : 1
                },
                {
                    "attributes" : {
                        "POSITION" : 8,
                        "NORMAL" : 9,
                        "TEXCOORD_0" : 10
                    },
                    "indices" : 11,
                    "material" : 2
                },
                {
                    "attributes" : {
                        "POSITION" : 12,
                        "NORMAL" : 13,
                        "TEXCOORD_0" : 14
                    },
                    "indices" : 15,
                    "material" : 3
                }
            ]
        }
    ],
    "accessors" : [
        {
            "bufferView" : 0,
            "componentType" : 5126,
            "count" : 22157,
            "max" : [
                1.3574999570846558,
                0.11999982595443726,
                -3.7654097080230713
            ],
            "min" : [
                -1.1894999742507935,
                -0.12000018358230591,
                -4.505570411682129
            ],
            "type" : "VEC3"
        },
        {
            "bufferView" : 1,
            "componentType" : 5126,
            "count" : 22157,
            "type" : "VEC3"
        },
        {
            "bufferView" : 2,
            "componentType" : 5126,
            "count" : 22157,
            "type" : "VEC2"
        },
        {
            "bufferView" : 3,
            "componentType" : 5123,
            "count" : 117984,
            "type" : "SCALAR"
        },
        {
            "bufferView" : 4,
            "componentType" : 5126,
            "count" : 448,
            "max" : [
                8.802179336547852,
                0.21938569843769073,
                -3.7419991493225098
            ],
            "min" : [
                -8.59709358215332,
                -0.219386026263237,
                -4.1807708740234375
            ],
            "type" : "VEC3"
        },
        {
            "bufferView" : 5,
            "componentType" : 5126,
            "count" : 448,
            "type" : "VEC3"
        },
        {
            "bufferView" : 6,
            "componentType" : 5126,
            "count" : 448,
            "type" : "VEC2"
        },
        {
            "bufferView" : 7,
            "componentType" : 5123,
            "count" : 744,
            "type" : "SCALAR"
        },
        {
            "bufferView" : 8,
            "componentType" : 5126,
            "count" : 448,
            "max" : [
                10.149346351623535,
                0.21938598155975342,
                3.00990629196167
            ],
            "min" : [
                9.71057415008545,
                -0.21938596665859222,
                -2.9870731830596924
            ],
            "type" : "VEC3"
        },
        {
            "bufferView" : 9,
            "componentType" : 5126,
            "count" : 448,
            "type" : "VEC3"
        },
        {
            "bufferView" : 10,
            "componentType" : 5126,
            "count" : 448,
            "type" : "VEC2"
        },
        {
            "bufferView" : 11,
            "componentType" : 5123,
            "count" : 744,
            "type" : "SCALAR"
        },
        {
            "bufferView" : 12,
            "componentType" : 5126,
            "count" : 26965,
            "max" : [
                10.457618713378906,
                0.12000006437301636,
                1.3575000762939453
            ],
            "min" : [
                9.710132598876953,
                -0.12000007182359695,
                -1.3615126609802246
            ],
            "type" : "VEC3"
        },
        {
            "bufferView" : 13,
            "componentType" : 5126,
            "count" : 26965,
            "type" : "VEC3"
        },
        {
            "bufferView" : 14,
            "componentType" : 5126,
            "count" : 26965,
            "type" : "VEC2"
        },
        {
            "bufferView" : 15,
            "componentType" : 5123,
            "count" : 136980,
            "type" : "SCALAR"
        }
    ],
    "bufferViews" : [
        {
            "buffer" : 0,
            "byteLength" : 265884,
            "byteOffset" : 0
        },
        {
            "buffer" : 0,
            "byteLength" : 265884,
            "byteOffset" : 265884
        },
        {
            "buffer" : 0,
            "byteLength" : 177256,
            "byteOffset" : 531768
        },
        {
            "buffer" : 0,
            "byteLength" : 235968,
            "byteOffset" : 709024
        },
        {
            "buffer" : 0,
            "byteLength" : 5376,
            "byteOffset" : 944992
        },
        {
            "buffer" : 0,
            "byteLength" : 5376,
            "byteOffset" : 950368
        },
        {
            "buffer" : 0,
            "byteLength" : 3584,
            "byteOffset" : 955744
        },
        {
            "buffer" : 0,
            "byteLength" : 1488,
            "byteOffset" : 959328
        },
        {
            "buffer" : 0,
            "byteLength" : 5376,
            "byteOffset" : 960816
        },
        {
            "buffer" : 0,
            "byteLength" : 5376,
            "byteOffset" : 966192
        },
        {
            "buffer" : 0,
            "byteLength" : 3584,
            "byteOffset" : 971568
        },
        {
            "buffer" : 0,
            "byteLength" : 1488,
            "byteOffset" : 975152
        },
        {
            "buffer" : 0,
            "byteLength" : 323580,
            "byteOffset" : 976640
        },
        {
            "buffer" : 0,
            "byteLength" : 323580,
            "byteOffset" : 1300220
        },
        {
            "buffer" : 0,
            "byteLength" : 215720,
            "byteOffset" : 1623800
        },
        {
            "buffer" : 0,
            "byteLength" : 273960,
            "byteOffset" : 1839520
        }
    ],
    "buffers" : [
        {
            "byteLength" : 2113480,
            "uri" : "data:application/octet-stream;base64,"
        }
    ]
}
