{
    "asset" : {
        "generator" : "Khronos glTF Blender I/O v1.1.46",
        "version" : "2.0"
    },
    "scene" : 0,
    "scenes" : [
        {
            "name" : "Scene",
            "nodes" : [
                0
            ]
        }
    ],
    "nodes" : [
        {
            "mesh" : 0,
            "name" : "Text.002",
            "rotation" : [
                0,
                0,
                -0.9912115931510925,
                0.1322864443063736
            ],
            "scale" : [
                0.26734745502471924,
                0.2673474848270416,
                0.26734739542007446
            ]
        }
    ],
    "materials" : [
        {
            "doubleSided" : true,
            "emissiveFactor" : [
                0,
                0,
                0
            ],
            "name" : "Material.004",
            "pbrMetallicRoughness" : {
                "baseColorFactor" : [
                    0,
                    0,
                    0,
                    1
                ],
                "metallicFactor" : 0,
                "roughnessFactor" : 0.5
            }
        },
        {
            "alphaMode" : "BLEND",
            "doubleSided" : true,
            "emissiveFactor" : [
                0,
                0,
                0
            ],
            "name" : "Untitled-1-01.001",
            "pbrMetallicRoughness" : {
                "baseColorTexture" : {
                    "index" : 0,
                    "texCoord" : 0
                },
                "metallicFactor" : 0,
                "roughnessFactor" : 0.5
            }
        },
        {
            "doubleSided" : true,
            "emissiveFactor" : [
                0,
                0,
                0
            ],
            "name" : "Material.001",
            "pbrMetallicRoughness" : {
                "baseColorFactor" : [
                    0,
                    0,
                    0,
                    1
                ],
                "metallicFactor" : 0,
                "roughnessFactor" : 0.5
            }
        }
    ],
    "meshes" : [
        {
            "name" : "Text.003",
            "primitives" : [
                {
                    "attributes" : {
                        "POSITION" : 0,
                        "NORMAL" : 1,
                        "TEXCOORD_0" : 2
                    },
                    "indices" : 3,
                    "material" : 0
                },
                {
                    "attributes" : {
                        "POSITION" : 4,
                        "NORMAL" : 5,
                        "TEXCOORD_0" : 6
                    },
                    "indices" : 7,
                    "material" : 1
                },
                {
                    "attributes" : {
                        "POSITION" : 8,
                        "NORMAL" : 9,
                        "TEXCOORD_0" : 10
                    },
                    "indices" : 11,
                    "material" : 2
                }
            ]
        }
    ],
    "textures" : [
        {
            "source" : 0
        }
    ],
    "images" : [
        {
            "bufferView" : 8,
            "mimeType" : "image/png",
            "name" : "Image_0"
        }
    ],
    "accessors" : [
        {
            "bufferView" : 0,
            "componentType" : 5126,
            "count" : 24037,
            "max" : [
                17.639249801635742,
                -1.7519211769104004,
                -0.016541719436645508
            ],
            "min" : [
                2.3727731704711914,
                -10.446409225463867,
                -0.016545116901397705
            ],
            "type" : "VEC3"
        },
        {
            "bufferView" : 1,
            "componentType" : 5126,
            "count" : 24037,
            "type" : "VEC3"
        },
        {
            "bufferView" : 2,
            "componentType" : 5126,
            "count" : 24037,
            "type" : "VEC2"
        },
        {
            "bufferView" : 3,
            "componentType" : 5123,
            "count" : 24456,
            "type" : "SCALAR"
        },
        {
            "bufferView" : 4,
            "componentType" : 5126,
            "count" : 6,
            "max" : [
                4.512619495391846,
                -6.2098388671875,
                0.2905680239200592
            ],
            "min" : [
                -10.00772476196289,
                -13.886138916015625,
                0.2905581295490265
            ],
            "type" : "VEC3"
        },
        {
            "bufferView" : 5,
            "componentType" : 5126,
            "count" : 6,
            "type" : "VEC3"
        },
        {
            "bufferView" : 6,
            "componentType" : 5126,
            "count" : 6,
            "type" : "VEC2"
        },
        {
            "bufferView" : 7,
            "componentType" : 5123,
            "count" : 6,
            "type" : "SCALAR"
        },
        {
            "bufferView" : 9,
            "componentType" : 5126,
            "count" : 17151,
            "max" : [
                -4.295459270477295,
                3.420419692993164,
                -0.0523991584777832
            ],
            "min" : [
                -18.236820220947266,
                -3.9324398040771484,
                -0.0524023175239563
            ],
            "type" : "VEC3"
        },
        {
            "bufferView" : 10,
            "componentType" : 5126,
            "count" : 17151,
            "type" : "VEC3"
        },
        {
            "bufferView" : 11,
            "componentType" : 5126,
            "count" : 17151,
            "type" : "VEC2"
        },
        {
            "bufferView" : 12,
            "componentType" : 5123,
            "count" : 17469,
            "type" : "SCALAR"
        }
    ],
    "bufferViews" : [
        {
            "buffer" : 0,
            "byteLength" : 288444,
            "byteOffset" : 0
        },
        {
            "buffer" : 0,
            "byteLength" : 288444,
            "byteOffset" : 288444
        },
        {
            "buffer" : 0,
            "byteLength" : 192296,
            "byteOffset" : 576888
        },
        {
            "buffer" : 0,
            "byteLength" : 48912,
            "byteOffset" : 769184
        },
        {
            "buffer" : 0,
            "byteLength" : 72,
            "byteOffset" : 818096
        },
        {
            "buffer" : 0,
            "byteLength" : 72,
            "byteOffset" : 818168
        },
        {
            "buffer" : 0,
            "byteLength" : 48,
            "byteOffset" : 818240
        },
        {
            "buffer" : 0,
            "byteLength" : 12,
            "byteOffset" : 818288
        },
        {
            "buffer" : 0,
            "byteLength" : 54740,
            "byteOffset" : 818300
        },
        {
            "buffer" : 0,
            "byteLength" : 205812,
            "byteOffset" : 873040
        },
        {
            "buffer" : 0,
            "byteLength" : 205812,
            "byteOffset" : 1078852
        },
        {
            "buffer" : 0,
            "byteLength" : 137208,
            "byteOffset" : 1284664
        },
        {
            "buffer" : 0,
            "byteLength" : 34938,
            "byteOffset" : 1421872
        }
    ],
    "buffers" : [
        {
            "byteLength" : 1456812,
            "uri" : "data:application/octet-stream;base64,"
        }
    ]
}
