{
    "asset" : {
        "generator" : "Khronos glTF Blender I/O v1.1.46",
        "version" : "2.0"
    },
    "scene" : 0,
    "scenes" : [
        {
            "name" : "Scene",
            "nodes" : [
                0
            ]
        }
    ],
    "nodes" : [
        {
            "mesh" : 0,
            "name" : "Text.008",
            "rotation" : [
                0.7071067690849304,
                0,
                0,
                0.7071067690849304
            ],
            "translation" : [
                0,
                4.330774307250977,
                0
            ]
        }
    ],
    "materials" : [
        {
            "doubleSided" : true,
            "emissiveFactor" : [
                0,
                0,
                0
            ],
            "name" : "Material.026",
            "pbrMetallicRoughness" : {
                "baseColorFactor" : [
                    1,
                    1,
                    1,
                    1
                ],
                "metallicFactor" : 0,
                "roughnessFactor" : 0.6269841194152832
            }
        },
        {
            "doubleSided" : true,
            "emissiveFactor" : [
                0,
                0,
                0
            ],
            "name" : "Material.027",
            "pbrMetallicRoughness" : {
                "baseColorFactor" : [
                    0.800000011920929,
                    0.06278800219297409,
                    0.06278800219297409,
                    1
                ],
                "metallicFactor" : 0,
                "roughnessFactor" : 1
            }
        },
        {
            "doubleSided" : true,
            "emissiveFactor" : [
                0,
                0,
                0
            ],
            "name" : "Material.025",
            "pbrMetallicRoughness" : {
                "baseColorFactor" : [
                    1,
                    1,
                    1,
                    1
                ],
                "metallicFactor" : 0,
                "roughnessFactor" : 0.6269841194152832
            }
        },
        {
            "doubleSided" : true,
            "emissiveFactor" : [
                0,
                0,
                0
            ],
            "name" : "Material.023",
            "pbrMetallicRoughness" : {
                "baseColorFactor" : [
                    0.800000011920929,
                    0.06278800219297409,
                    0.06278800219297409,
                    1
                ],
                "metallicFactor" : 0,
                "roughnessFactor" : 1
            }
        }
    ],
    "meshes" : [
        {
            "name" : "Text.002",
            "primitives" : [
                {
                    "attributes" : {
                        "POSITION" : 0,
                        "NORMAL" : 1,
                        "TEXCOORD_0" : 2
                    },
                    "indices" : 3,
                    "material" : 0
                },
                {
                    "attributes" : {
                        "POSITION" : 4,
                        "NORMAL" : 5,
                        "TEXCOORD_0" : 6
                    },
                    "indices" : 7,
                    "material" : 1
                },
                {
                    "attributes" : {
                        "POSITION" : 8,
                        "NORMAL" : 9,
                        "TEXCOORD_0" : 10
                    },
                    "indices" : 11,
                    "material" : 2
                },
                {
                    "attributes" : {
                        "POSITION" : 12,
                        "NORMAL" : 13,
                        "TEXCOORD_0" : 14
                    },
                    "indices" : 15,
                    "material" : 3
                }
            ]
        }
    ],
    "accessors" : [
        {
            "bufferView" : 0,
            "componentType" : 5126,
            "count" : 20781,
            "max" : [
                1.3574999570846558,
                0.12000000476837158,
                0.37003257870674133
            ],
            "min" : [
                -1.3574999570846558,
                -0.12000000476837158,
                -0.37003254890441895
            ],
            "type" : "VEC3"
        },
        {
            "bufferView" : 1,
            "componentType" : 5126,
            "count" : 20781,
            "type" : "VEC3"
        },
        {
            "bufferView" : 2,
            "componentType" : 5126,
            "count" : 20781,
            "type" : "VEC2"
        },
        {
            "bufferView" : 3,
            "componentType" : 5123,
            "count" : 111348,
            "type" : "SCALAR"
        },
        {
            "bufferView" : 4,
            "componentType" : 5126,
            "count" : 448,
            "max" : [
                11.64637279510498,
                0.21938586235046387,
                0.3852664828300476
            ],
            "min" : [
                -11.64871597290039,
                -0.21938586235046387,
                -0.05350793898105621
            ],
            "type" : "VEC3"
        },
        {
            "bufferView" : 5,
            "componentType" : 5126,
            "count" : 448,
            "type" : "VEC3"
        },
        {
            "bufferView" : 6,
            "componentType" : 5126,
            "count" : 448,
            "type" : "VEC2"
        },
        {
            "bufferView" : 7,
            "componentType" : 5123,
            "count" : 744,
            "type" : "SCALAR"
        },
        {
            "bufferView" : 8,
            "componentType" : 5126,
            "count" : 19563,
            "max" : [
                13.149105072021484,
                0.12000025063753128,
                5.6882758140563965
            ],
            "min" : [
                12.401618957519531,
                -0.11999988555908203,
                2.9692630767822266
            ],
            "type" : "VEC3"
        },
        {
            "bufferView" : 9,
            "componentType" : 5126,
            "count" : 19563,
            "type" : "VEC3"
        },
        {
            "bufferView" : 10,
            "componentType" : 5126,
            "count" : 19563,
            "type" : "VEC2"
        },
        {
            "bufferView" : 11,
            "componentType" : 5123,
            "count" : 99228,
            "type" : "SCALAR"
        },
        {
            "bufferView" : 12,
            "componentType" : 5126,
            "count" : 448,
            "max" : [
                12.840832710266113,
                0.21938617527484894,
                7.529971122741699
            ],
            "min" : [
                12.402059555053711,
                -0.2193858027458191,
                1.0711948871612549
            ],
            "type" : "VEC3"
        },
        {
            "bufferView" : 13,
            "componentType" : 5126,
            "count" : 448,
            "type" : "VEC3"
        },
        {
            "bufferView" : 14,
            "componentType" : 5126,
            "count" : 448,
            "type" : "VEC2"
        },
        {
            "bufferView" : 15,
            "componentType" : 5123,
            "count" : 744,
            "type" : "SCALAR"
        }
    ],
    "bufferViews" : [
        {
            "buffer" : 0,
            "byteLength" : 249372,
            "byteOffset" : 0
        },
        {
            "buffer" : 0,
            "byteLength" : 249372,
            "byteOffset" : 249372
        },
        {
            "buffer" : 0,
            "byteLength" : 166248,
            "byteOffset" : 498744
        },
        {
            "buffer" : 0,
            "byteLength" : 222696,
            "byteOffset" : 664992
        },
        {
            "buffer" : 0,
            "byteLength" : 5376,
            "byteOffset" : 887688
        },
        {
            "buffer" : 0,
            "byteLength" : 5376,
            "byteOffset" : 893064
        },
        {
            "buffer" : 0,
            "byteLength" : 3584,
            "byteOffset" : 898440
        },
        {
            "buffer" : 0,
            "byteLength" : 1488,
            "byteOffset" : 902024
        },
        {
            "buffer" : 0,
            "byteLength" : 234756,
            "byteOffset" : 903512
        },
        {
            "buffer" : 0,
            "byteLength" : 234756,
            "byteOffset" : 1138268
        },
        {
            "buffer" : 0,
            "byteLength" : 156504,
            "byteOffset" : 1373024
        },
        {
            "buffer" : 0,
            "byteLength" : 198456,
            "byteOffset" : 1529528
        },
        {
            "buffer" : 0,
            "byteLength" : 5376,
            "byteOffset" : 1727984
        },
        {
            "buffer" : 0,
            "byteLength" : 5376,
            "byteOffset" : 1733360
        },
        {
            "buffer" : 0,
            "byteLength" : 3584,
            "byteOffset" : 1738736
        },
        {
            "buffer" : 0,
            "byteLength" : 1488,
            "byteOffset" : 1742320
        }
    ],
    "buffers" : [
        {
            "byteLength" : 1743808,
            "uri" : "data:application/octet-stream;base64,"
        }
    ]
}
