{
    "asset" : {
        "generator" : "Khronos glTF Blender I/O v1.1.46",
        "version" : "2.0"
    },
    "scene" : 0,
    "scenes" : [
        {
            "name" : "Scene",
            "nodes" : [
                0
            ]
        }
    ],
    "nodes" : [
        {
            "mesh" : 0,
            "name" : "Text.002",
            "rotation" : [
                -0.5000000596046448,
                0.4999999403953552,
                -0.49999988079071045,
                0.5000001192092896
            ],
            "translation" : [
                0,
                -2.925213098526001,
                0
            ]
        }
    ],
    "materials" : [
        {
            "doubleSided" : true,
            "emissiveFactor" : [
                0,
                0,
                0
            ],
            "name" : "Material.006",
            "pbrMetallicRoughness" : {
                "baseColorFactor" : [
                    1,
                    1,
                    1,
                    1
                ],
                "metallicFactor" : 0,
                "roughnessFactor" : 0.6269841194152832
            }
        },
        {
            "doubleSided" : true,
            "emissiveFactor" : [
                0,
                0,
                0
            ],
            "name" : "Material.001",
            "pbrMetallicRoughness" : {
                "baseColorFactor" : [
                    0.8000000715255737,
                    0.06278819590806961,
                    0.06278819590806961,
                    1
                ],
                "metallicFactor" : 0,
                "roughnessFactor" : 1
            }
        },
        {
            "doubleSided" : true,
            "emissiveFactor" : [
                0,
                0,
                0
            ],
            "name" : "Material.002",
            "pbrMetallicRoughness" : {
                "baseColorFactor" : [
                    0.8000000715255737,
                    0.06278819590806961,
                    0.06278819590806961,
                    1
                ],
                "metallicFactor" : 0,
                "roughnessFactor" : 1
            }
        },
        {
            "doubleSided" : true,
            "emissiveFactor" : [
                0,
                0,
                0
            ],
            "name" : "Material.007",
            "pbrMetallicRoughness" : {
                "baseColorFactor" : [
                    1,
                    1,
                    1,
                    1
                ],
                "metallicFactor" : 0,
                "roughnessFactor" : 0.6269841194152832
            }
        }
    ],
    "meshes" : [
        {
            "name" : "Text.002",
            "primitives" : [
                {
                    "attributes" : {
                        "POSITION" : 0,
                        "NORMAL" : 1,
                        "TEXCOORD_0" : 2
                    },
                    "indices" : 3,
                    "material" : 0
                },
                {
                    "attributes" : {
                        "POSITION" : 4,
                        "NORMAL" : 5,
                        "TEXCOORD_0" : 6
                    },
                    "indices" : 7,
                    "material" : 1
                },
                {
                    "attributes" : {
                        "POSITION" : 8,
                        "NORMAL" : 9,
                        "TEXCOORD_0" : 10
                    },
                    "indices" : 11,
                    "material" : 2
                },
                {
                    "attributes" : {
                        "POSITION" : 12,
                        "NORMAL" : 13,
                        "TEXCOORD_0" : 14
                    },
                    "indices" : 15,
                    "material" : 3
                }
            ]
        }
    ],
    "accessors" : [
        {
            "bufferView" : 0,
            "componentType" : 5126,
            "count" : 17620,
            "max" : [
                -0.8632092475891113,
                0.11800166219472885,
                10.814138412475586
            ],
            "min" : [
                -3.8562092781066895,
                -0.12199834734201431,
                10.074073791503906
            ],
            "type" : "VEC3"
        },
        {
            "bufferView" : 1,
            "componentType" : 5126,
            "count" : 17620,
            "type" : "VEC3"
        },
        {
            "bufferView" : 2,
            "componentType" : 5126,
            "count" : 17620,
            "type" : "VEC2"
        },
        {
            "bufferView" : 3,
            "componentType" : 5123,
            "count" : 88908,
            "type" : "SCALAR"
        },
        {
            "bufferView" : 4,
            "componentType" : 5126,
            "count" : 260,
            "max" : [
                -12.190773010253906,
                0.2193862348794937,
                8.858508110046387
            ],
            "min" : [
                -12.629545211791992,
                -0.2193862497806549,
                -9.254605293273926
            ],
            "type" : "VEC3"
        },
        {
            "bufferView" : 5,
            "componentType" : 5126,
            "count" : 260,
            "type" : "VEC3"
        },
        {
            "bufferView" : 6,
            "componentType" : 5126,
            "count" : 260,
            "type" : "VEC2"
        },
        {
            "bufferView" : 7,
            "componentType" : 5123,
            "count" : 744,
            "type" : "SCALAR"
        },
        {
            "bufferView" : 8,
            "componentType" : 5126,
            "count" : 260,
            "max" : [
                6.382820129394531,
                0.21938541531562805,
                10.550416946411133
            ],
            "min" : [
                -10.968889236450195,
                -0.21938632428646088,
                10.111640930175781
            ],
            "type" : "VEC3"
        },
        {
            "bufferView" : 9,
            "componentType" : 5126,
            "count" : 260,
            "type" : "VEC3"
        },
        {
            "bufferView" : 10,
            "componentType" : 5126,
            "count" : 260,
            "type" : "VEC2"
        },
        {
            "bufferView" : 11,
            "componentType" : 5123,
            "count" : 744,
            "type" : "SCALAR"
        },
        {
            "bufferView" : 12,
            "componentType" : 5126,
            "count" : 22138,
            "max" : [
                -12.208621978759766,
                0.12000083178281784,
                1.3538579940795898
            ],
            "min" : [
                -12.948686599731445,
                -0.119999960064888,
                -1.3611421585083008
            ],
            "type" : "VEC3"
        },
        {
            "bufferView" : 13,
            "componentType" : 5126,
            "count" : 22138,
            "type" : "VEC3"
        },
        {
            "bufferView" : 14,
            "componentType" : 5126,
            "count" : 22138,
            "type" : "VEC2"
        },
        {
            "bufferView" : 15,
            "componentType" : 5123,
            "count" : 111348,
            "type" : "SCALAR"
        }
    ],
    "bufferViews" : [
        {
            "buffer" : 0,
            "byteLength" : 211440,
            "byteOffset" : 0
        },
        {
            "buffer" : 0,
            "byteLength" : 211440,
            "byteOffset" : 211440
        },
        {
            "buffer" : 0,
            "byteLength" : 140960,
            "byteOffset" : 422880
        },
        {
            "buffer" : 0,
            "byteLength" : 177816,
            "byteOffset" : 563840
        },
        {
            "buffer" : 0,
            "byteLength" : 3120,
            "byteOffset" : 741656
        },
        {
            "buffer" : 0,
            "byteLength" : 3120,
            "byteOffset" : 744776
        },
        {
            "buffer" : 0,
            "byteLength" : 2080,
            "byteOffset" : 747896
        },
        {
            "buffer" : 0,
            "byteLength" : 1488,
            "byteOffset" : 749976
        },
        {
            "buffer" : 0,
            "byteLength" : 3120,
            "byteOffset" : 751464
        },
        {
            "buffer" : 0,
            "byteLength" : 3120,
            "byteOffset" : 754584
        },
        {
            "buffer" : 0,
            "byteLength" : 2080,
            "byteOffset" : 757704
        },
        {
            "buffer" : 0,
            "byteLength" : 1488,
            "byteOffset" : 759784
        },
        {
            "buffer" : 0,
            "byteLength" : 265656,
            "byteOffset" : 761272
        },
        {
            "buffer" : 0,
            "byteLength" : 265656,
            "byteOffset" : 1026928
        },
        {
            "buffer" : 0,
            "byteLength" : 177104,
            "byteOffset" : 1292584
        },
        {
            "buffer" : 0,
            "byteLength" : 222696,
            "byteOffset" : 1469688
        }
    ],
    "buffers" : [
        {
            "byteLength" : 1692384,
            "uri" : "data:application/octet-stream;base64,"
        }
    ]
}
